<?xml version="1.0" encoding="utf-8"?>
<!-- Generator: Adobe Illustrator 24.1.1, SVG Export Plug-In . SVG Version: 6.00 Build 0)  -->
<svg version="1.1" id="Layer_1" xmlns="http://www.w3.org/2000/svg" xmlns:xlink="http://www.w3.org/1999/xlink" x="0px" y="0px"
	 viewBox="0 0 123 65.7" style="enable-background:new 0 0 123 65.7;" xml:space="preserve">
<style type="text/css">
	.st0{enable-background:new    ;}
	.st1{fill:#2D2F39;}
</style>
<g>
	<g id="starting_step">
		<g class="st0">
			<path class="st1" d="M2.8,26.9c0-0.2,0.2-0.3,0.6-0.4s0.8-0.3,1.3-0.4s1.1-0.3,1.8-0.5s1.3-0.4,1.9-0.6s1.1-0.5,1.6-0.8
				s0.9-0.6,1.1-1c0-0.2-0.2-0.4-0.5-0.5s-0.7-0.2-1.2-0.3S8.3,22,7.7,22s-1.3-0.1-2-0.2s-1.3-0.2-2-0.4S2.5,21,2,20.7
				s-0.9-0.6-1.2-1s-0.5-0.9-0.5-1.5s0.1-1.2,0.4-1.8s0.6-1.2,1.1-1.7s1-1.1,1.5-1.6s1.2-0.9,1.8-1.3s1.2-0.6,1.9-0.8
				s1.2-0.3,1.7-0.3c0.1,0,0.3,0,0.4,0s0.3,0,0.4,0s0.2,0.1,0.3,0.2s0.1,0.2,0.1,0.4c0,0.5-0.1,0.8-0.4,1s-0.7,0.3-1.1,0.3l-0.9-0.7
				c-0.4,0-0.8,0.1-1.2,0.3S5.4,12.6,5,12.9s-0.9,0.7-1.3,1.2S2.9,15,2.6,15.4S2,16.4,1.8,16.8s-0.3,0.9-0.3,1.3
				c0,0.5,0.2,1,0.5,1.3s0.7,0.6,1.2,0.8s1.1,0.3,1.7,0.4s1.3,0.2,2,0.2s1.3,0.1,2,0.2s1.2,0.2,1.7,0.3s0.9,0.3,1.2,0.6
				s0.5,0.6,0.5,1c0.2,0.3,0.1,0.5-0.1,0.9s-0.6,0.6-1.1,1s-1.1,0.6-1.8,1s-1.4,0.6-2.1,0.9S5.7,27,5,27.2s-1.3,0.3-1.8,0.3
				c-0.1,0-0.3,0-0.4-0.1S2.8,27.1,2.8,26.9z"/>
			<path class="st1" d="M14.2,18c-0.2,0.1-0.3,0.2-0.4,0.2s-0.3,0.2-0.4,0.2s-0.3,0.1-0.4,0.2s-0.3,0-0.4,0c-0.1,0-0.2-0.1-0.2-0.2
				s-0.1-0.3-0.2-0.4s-0.1-0.3-0.1-0.4s0-0.3,0-0.3l2.3-1.3l0.1-6c0-0.2,0.2-0.3,0.4-0.2s0.4,0.1,0.7,0.2c0,0,0.1,0,0.2,0
				s0.1,0,0.2,0.1c0,0.4-0.1,0.9-0.1,1.4s-0.1,1-0.1,1.5s-0.1,1-0.1,1.4s0,0.9,0.1,1.3l3.5-1c0.1,0,0.1,0,0.2,0.1s0.1,0.2,0.1,0.4
				s0.1,0.4,0.1,0.6l-4,1.7c0,0.1,0,0.5,0,1s0.1,1.2,0.1,1.9s0.1,1.5,0.1,2.3s0.1,1.6,0.1,2.3s0.1,1.3,0.1,1.9s0,0.9,0,1
				c0,0.5-0.2,0.7-0.4,0.7s-0.5-0.1-0.8-0.4L14.2,18z"/>
			<path class="st1" d="M26.7,27.4c-0.1-0.4-0.1-0.9-0.2-1.5s-0.1-1.1-0.2-1.7s-0.1-1.1-0.2-1.7s-0.2-0.9-0.4-1.3
				c-0.8,1.6-1.5,2.9-2.1,3.8s-1.1,1.6-1.6,2s-0.8,0.6-1.2,0.6s-0.6-0.2-0.8-0.4s-0.3-0.6-0.4-1s-0.1-0.8-0.2-1.2
				c0-0.3,0.1-0.8,0.2-1.5s0.4-1.3,0.6-2.1s0.6-1.5,0.9-2.3s0.8-1.5,1.2-2.1s0.9-1.1,1.3-1.5s0.9-0.6,1.4-0.6c0.7-0.1,1.2,0,1.5,0.4
				s0.4,1.1,0.2,2c0,1,0,1.9,0.1,2.6s0.2,1.4,0.3,2.1s0.2,1.4,0.3,2.1s0.1,1.6,0.1,2.6c0,0.2,0,0.3-0.1,0.5s-0.2,0.2-0.6,0.2
				c0,0-0.1,0-0.2-0.1S26.7,27.4,26.7,27.4z M25.4,16.9c-0.2-0.3-0.4-0.3-0.7-0.1s-0.6,0.5-0.9,1s-0.7,1-1,1.7s-0.7,1.3-1,2
				s-0.6,1.3-0.8,1.9s-0.4,1.1-0.4,1.5c0,0.6,0.1,0.9,0.3,0.9s0.4,0,0.6-0.3s0.5-0.6,0.9-1.1s0.6-1,0.9-1.5s0.6-1,0.9-1.5
				s0.5-0.9,0.6-1.2c0.1-0.3,0.3-0.6,0.3-0.9s0.1-0.6,0.2-0.8s0.1-0.5,0.1-0.8S25.4,17.2,25.4,16.9z"/>
			<path class="st1" d="M28.8,16.7v-0.2c0-0.2,0.1-0.3,0.2-0.3s0.3-0.1,0.4-0.1c0.1,0,0.2,0,0.4,0s0.2,0.1,0.3,0.3
				c0,0.2,0.1,0.6,0.1,1s0.1,0.9,0.2,1.4s0.1,1,0.2,1.6s0.1,1.1,0.2,1.6s0.1,0.9,0.2,1.3s0.2,0.7,0.3,0.9c0-1.5,0-2.8,0.1-3.9
				s0.4-2,0.8-2.7s0.9-1.2,1.6-1.5s1.6-0.3,2.6-0.2c0.5,0,0.7,0.3,0.7,0.8c0,0.2-0.1,0.3-0.4,0.4s-0.6,0.1-0.9,0.1s-0.6,0.1-1,0.1
				s-0.5,0.1-0.7,0.2c-0.6,0.3-1,0.8-1.2,1.5s-0.4,1.4-0.5,2.3s-0.2,1.9-0.2,2.9s-0.1,2.1-0.3,3.2c0,0.2-0.1,0.3-0.2,0.4
				s-0.3,0.1-0.5,0.1s-0.4,0-0.5-0.1s-0.3-0.2-0.4-0.4L28.8,16.7z"/>
			<path class="st1" d="M39,18c-0.2,0.1-0.3,0.2-0.4,0.2s-0.3,0.2-0.4,0.2s-0.3,0.1-0.4,0.2s-0.3,0-0.4,0c-0.1,0-0.2-0.1-0.2-0.2
				S37,18.2,37,18.1s-0.1-0.3-0.1-0.4s0-0.3,0-0.3l2.3-1.3l0.1-6c0-0.2,0.2-0.3,0.4-0.2s0.4,0.1,0.7,0.2c0,0,0.1,0,0.2,0
				s0.1,0,0.2,0.1c0,0.4-0.1,0.9-0.1,1.4s-0.1,1-0.1,1.5s-0.1,1-0.1,1.4s0,0.9,0.1,1.3l3.5-1c0.1,0,0.1,0,0.2,0.1s0.1,0.2,0.1,0.4
				s0.1,0.4,0.1,0.6l-4,1.7c0,0.1,0,0.5,0,1s0.1,1.2,0.1,1.9s0.1,1.5,0.1,2.3s0.1,1.6,0.1,2.3s0.1,1.3,0.1,1.9s0,0.9,0,1
				c0,0.5-0.2,0.7-0.4,0.7s-0.5-0.1-0.8-0.4L39,18z"/>
			<path class="st1" d="M44.6,10.8c0-0.2,0.1-0.3,0.2-0.4s0.3-0.1,0.4-0.1c0.3,0,0.5,0.1,0.6,0.3S46,11,46,11.3
				c-0.1,0.2-0.2,0.3-0.4,0.4s-0.3,0.1-0.4,0s-0.3-0.1-0.4-0.3S44.6,11,44.6,10.8z M45.2,27.5c0-1,0-2.1-0.1-3.2S45,22.1,45,20.9
				s-0.1-2.3,0-3.4s0.1-2.1,0.2-3.1c0,0,0.1,0,0.2,0s0.2,0,0.2,0c0.2,0,0.4,0,0.5,0.1s0.2,0.2,0.2,0.5c0,0.9,0,1.9,0,3s0,2.2,0,3.3
				s0,2.2,0,3.3s0,2.1,0,3c0,0.3,0,0.4-0.2,0.5s-0.3,0.1-0.4,0.1c-0.2,0-0.3,0-0.5-0.1S45.1,27.8,45.2,27.5z"/>
			<path class="st1" d="M49,27.7c-0.2-2.1-0.3-4.2-0.5-6.3s-0.3-4.3-0.4-6.6c0-0.4,0.2-0.6,0.6-0.6h0.2c0,0,0.1,0.1,0.2,0.2
				s0.1,0.4,0.2,0.7s0.1,0.8,0.2,1.5s0.2,1.6,0.3,2.7s0.3,2.5,0.4,4.1c0.3-1.1,0.6-2.1,0.8-3.1s0.4-1.9,0.7-2.7s0.7-1.5,1.3-2.2
				s1.3-1.1,2.3-1.4c0.6,0.1,1,0.4,1.4,1s0.6,1.3,0.8,2.2s0.3,1.8,0.4,2.8s0.1,2,0.1,2.9s0,1.7,0,2.5s0,1.2,0,1.6
				c0,0.1-0.1,0.2-0.2,0.3s-0.2,0.2-0.3,0.2s-0.2,0-0.3,0s-0.2-0.1-0.3-0.2c0-0.2,0-0.5,0-1.1s-0.1-1.2-0.1-1.9s-0.1-1.5-0.2-2.3
				s-0.1-1.6-0.1-2.3s-0.1-1.3-0.1-1.9s-0.1-0.9-0.1-1.1c-0.3-0.6-0.7-0.9-1-1s-0.6,0-1,0.3s-0.6,0.7-0.9,1.3s-0.6,1.2-0.8,2
				s-0.5,1.5-0.8,2.3s-0.4,1.6-0.6,2.3s-0.3,1.4-0.4,2s-0.2,1.1-0.2,1.4c0,0.1-0.1,0.2-0.3,0.3s-0.3,0.2-0.5,0.2s-0.3,0.1-0.5,0
				S49,27.9,49,27.7z"/>
			<path class="st1" d="M61.2,37.2c1.4-0.1,2.5-0.4,3.2-1.1s1.4-1.5,1.8-2.5s0.6-2.2,0.7-3.5s0.1-2.7,0-4s-0.2-2.8-0.3-4.2
				s-0.2-2.7-0.2-3.9c-0.7,2-1.3,3.6-1.9,4.8s-1.1,2.1-1.7,2.7s-1,1-1.4,1.1s-0.8,0.1-1.1-0.1s-0.6-0.5-0.8-0.9s-0.3-0.8-0.4-1.2
				c0-0.7,0.2-1.5,0.4-2.4s0.6-1.7,1-2.6s0.9-1.6,1.4-2.3s1.1-1.3,1.7-1.7s1.2-0.6,1.9-0.7s1.3,0.2,1.9,0.8c0,0,0,0.2,0.1,0.6
				s0.1,0.9,0.1,1.6s0.1,1.4,0.2,2.2s0.1,1.6,0.2,2.4s0.1,1.6,0.2,2.4s0.1,1.4,0.1,1.9c0.1,0.9,0,1.8-0.1,2.8s-0.3,2-0.6,2.9
				s-0.6,1.8-1.1,2.7s-0.9,1.5-1.5,2s-1.2,0.9-1.9,1s-1.4,0-2.2-0.4c0,0-0.1,0-0.2,0s-0.2,0-0.2-0.1s-0.1-0.1,0-0.2
				S61,37.3,61.2,37.2z M60.5,24.3c0.2,0.5,0.4,0.7,0.6,0.7s0.5-0.2,0.8-0.5s0.6-0.8,1-1.4s0.7-1.3,1-2s0.7-1.5,1-2.2
				s0.7-1.5,0.9-2.1c0-0.2,0-0.3-0.1-0.5s-0.3-0.2-0.5-0.1c-0.4,0.1-0.9,0.3-1.3,0.6s-0.8,0.7-1.1,1.2s-0.7,1-1,1.6
				s-0.5,1.1-0.8,1.7s-0.4,1.1-0.5,1.6S60.5,23.9,60.5,24.3z"/>
			<path class="st1" d="M87.9,19.9c-0.2,0.1-0.5,0.3-0.9,0.6s-0.9,0.5-1.4,0.8s-0.9,0.6-1.4,0.8s-0.7,0.4-0.9,0.6
				c-0.3,0.3-0.6,0.6-0.7,0.9s-0.2,0.7-0.2,1.1s0,0.8,0.1,1.2s0.1,0.9,0.2,1.3c0,0.2-0.1,0.4-0.2,0.6s-0.3,0.3-0.5,0.3
				c-0.1,0-0.2,0-0.3-0.1s-0.2-0.1-0.2-0.2l-0.5-15c0-0.1,0-0.2,0.1-0.4s0.1-0.2,0.2-0.3c0,0,0.1,0,0.2,0s0.2,0,0.3,0.1
				s0.2,0.1,0.3,0.1s0.1,0.1,0.2,0.1c0.1,0.6,0.1,1.3,0.1,2.2s0,1.6,0.1,2.5s0.1,1.6,0.1,2.4s0.2,1.4,0.3,2c0.7-0.3,1.3-0.5,1.9-0.8
				s1.1-0.5,1.5-0.9s0.8-0.7,1-1.2s0.4-1.1,0.4-1.8c0-0.4,0-0.7,0-1s0-0.6-0.1-0.9s-0.1-0.6-0.2-0.9s-0.2-0.7-0.3-1.2
				c0-0.3,0-0.5,0.1-0.5s0.3-0.1,0.4-0.1c0.2,0,0.4,0,0.5,0.1s0.2,0.2,0.3,0.4s0.1,0.3,0.1,0.5s0,0.3,0,0.5c0,0.3,0.1,0.6,0.1,1.1
				s0.1,1.1,0.2,1.7s0.1,1.3,0.2,2s0.1,1.4,0.2,2s0.1,1.2,0.2,1.7s0.1,0.9,0.1,1.1c0,0.6,0.1,1.2,0.2,1.8s0.1,1.2,0.1,1.8v0.4
				c0,0.1,0,0.2,0,0.4s-0.1,0.2-0.2,0.3S89.3,28,89.1,28c-0.3-0.2-0.4-0.4-0.5-0.7s-0.1-0.5-0.1-0.8c0-0.2,0-0.4,0-0.8
				s0-0.7-0.1-1.2s-0.1-0.9-0.1-1.4s-0.1-0.9-0.1-1.4S88,21,88,20.7S87.9,20.1,87.9,19.9z"/>
			<path class="st1" d="M91.8,22.9c-0.1,0-0.2,0-0.4,0.1s-0.3,0-0.5,0s-0.3-0.1-0.5-0.1s-0.2-0.2-0.2-0.4c0-0.1,0-0.2,0.1-0.2
				s0.1-0.1,0.2-0.2c0.3-0.3,0.6-0.6,0.9-1.1s0.5-0.9,0.7-1.4s0.4-1,0.6-1.5s0.5-1,0.8-1.4s0.7-0.7,1.1-1s1-0.4,1.6-0.4
				c0.3,0,0.6,0.1,0.9,0.2s0.6,0.3,0.9,0.5s0.5,0.5,0.7,0.8s0.3,0.6,0.3,1c0.1,0.1,0,0.3-0.2,0.5s-0.5,0.5-0.9,0.8s-0.8,0.6-1.3,0.8
				s-1,0.6-1.4,0.8s-0.9,0.5-1.2,0.7s-0.6,0.3-0.7,0.4c-0.1,0.2-0.1,0.3-0.2,0.5S93,22.7,93,22.9s0,0.3,0,0.5s0,0.3,0,0.3
				c0,0.3,0,0.6,0,1s0,0.7,0,1s0.2,0.6,0.4,0.8s0.5,0.3,1,0.3c0.5,0,1-0.1,1.5-0.4s0.9-0.6,1.3-0.9s0.7-0.8,1.1-1.2s0.6-0.8,0.9-1.2
				s0.5-0.7,0.7-0.9s0.4-0.4,0.5-0.4c0.2,0,0.3,0,0.5,0.1s0.3,0.2,0.3,0.4c0,0.3-0.1,0.6-0.3,1s-0.5,0.8-0.9,1.2s-0.8,0.9-1.3,1.3
				s-1,0.8-1.4,1.1s-1,0.6-1.4,0.8S94.7,28,94.4,28c-0.7,0-1.2-0.2-1.6-0.5s-0.6-0.8-0.8-1.3s-0.2-1.1-0.2-1.7S91.8,23.4,91.8,22.9z
				 M96.1,16.6c-0.3,0-0.5,0.1-0.8,0.4s-0.6,0.6-0.8,0.9s-0.5,0.7-0.6,1.1s-0.2,0.7-0.2,0.9c0.2,0,0.6-0.1,1-0.3s0.9-0.4,1.3-0.7
				s0.8-0.5,1.1-0.8s0.5-0.6,0.5-0.8c0-0.1-0.1-0.3-0.2-0.4s-0.2-0.2-0.4-0.2s-0.3-0.1-0.5-0.1S96.2,16.6,96.1,16.6z"/>
			<path class="st1" d="M102.2,16.7v-0.2c0-0.2,0.1-0.3,0.2-0.3s0.3-0.1,0.4-0.1c0.1,0,0.2,0,0.4,0s0.2,0.1,0.3,0.3
				c0,0.2,0.1,0.6,0.1,1s0.1,0.9,0.2,1.4s0.1,1,0.2,1.6s0.1,1.1,0.2,1.6s0.1,0.9,0.2,1.3s0.2,0.7,0.3,0.9c0-1.5,0-2.8,0.1-3.9
				s0.4-2,0.8-2.7s0.9-1.2,1.6-1.5s1.6-0.3,2.6-0.2c0.5,0,0.7,0.3,0.7,0.8c0,0.2-0.1,0.3-0.4,0.4s-0.6,0.1-0.9,0.1s-0.6,0.1-1,0.1
				s-0.5,0.1-0.7,0.2c-0.6,0.3-1,0.8-1.2,1.5s-0.4,1.4-0.5,2.3s-0.2,1.9-0.2,2.9s-0.1,2.1-0.3,3.2c0,0.2-0.1,0.3-0.2,0.4
				s-0.3,0.1-0.5,0.1s-0.4,0-0.5-0.1s-0.3-0.2-0.4-0.4L102.2,16.7z"/>
			<path class="st1" d="M112.4,22.9c-0.1,0-0.2,0-0.4,0.1s-0.3,0-0.5,0s-0.3-0.1-0.5-0.1s-0.2-0.2-0.2-0.4c0-0.1,0-0.2,0.1-0.2
				s0.1-0.1,0.2-0.2c0.3-0.3,0.6-0.6,0.9-1.1s0.5-0.9,0.7-1.4s0.4-1,0.6-1.5s0.5-1,0.8-1.4s0.7-0.7,1.1-1s1-0.4,1.6-0.4
				c0.3,0,0.6,0.1,0.9,0.2s0.6,0.3,0.9,0.5s0.5,0.5,0.7,0.8s0.3,0.6,0.3,1c0.1,0.1,0,0.3-0.2,0.5s-0.5,0.5-0.9,0.8s-0.8,0.6-1.3,0.8
				s-1,0.6-1.4,0.8s-0.9,0.5-1.2,0.7s-0.6,0.3-0.7,0.4c-0.1,0.2-0.1,0.3-0.2,0.5s-0.1,0.4-0.1,0.6s0,0.3,0,0.5s0,0.3,0,0.3
				c0,0.3,0,0.6,0,1s0,0.7,0,1s0.2,0.6,0.4,0.8s0.5,0.3,1,0.3c0.5,0,1-0.1,1.5-0.4s0.9-0.6,1.3-0.9s0.7-0.8,1.1-1.2s0.6-0.8,0.9-1.2
				s0.5-0.7,0.7-0.9s0.4-0.4,0.5-0.4c0.2,0,0.3,0,0.5,0.1s0.3,0.2,0.3,0.4c0,0.3-0.1,0.6-0.3,1s-0.5,0.8-0.9,1.2s-0.8,0.9-1.3,1.3
				s-1,0.8-1.4,1.1s-1,0.6-1.4,0.8S115.3,28,115,28c-0.7,0-1.2-0.2-1.6-0.5s-0.6-0.8-0.8-1.3s-0.2-1.1-0.2-1.7
				S112.4,23.4,112.4,22.9z M116.7,16.6c-0.3,0-0.5,0.1-0.8,0.4s-0.6,0.6-0.8,0.9s-0.5,0.7-0.6,1.1s-0.2,0.7-0.2,0.9
				c0.2,0,0.6-0.1,1-0.3s0.9-0.4,1.3-0.7s0.8-0.5,1.1-0.8s0.5-0.6,0.5-0.8c0-0.1-0.1-0.3-0.2-0.4s-0.2-0.2-0.4-0.2s-0.3-0.1-0.5-0.1
				S116.8,16.6,116.7,16.6z"/>
		</g>
	</g>
	<path d="M95.9,59.3L91.7,55c-0.4-0.4-1-0.4-1.4,0s-0.4,1,0,1.4l2.4,2.4C82.2,57.7,74,48.8,74,38c0-0.6-0.4-1-1-1s-1,0.4-1,1
		c0,12,9.2,21.8,20.9,22.9l-2.6,2.6c-0.4,0.4-0.4,1,0,1.4c0.2,0.2,0.5,0.3,0.7,0.3s0.5-0.1,0.7-0.3l4.2-4.2
		C96.3,60.3,96.3,59.7,95.9,59.3z"/>
</g>
</svg>
